<?xml version="1.0" encoding="UTF-8" standalone="no"?>
<!-- Created with Inkscape (http://www.inkscape.org/) -->

<svg
	version="1.1"
	id="svg1"
	width="113.38587"
	height="170.07867"
	viewBox="0 0 113.38587 170.07867"
	sodipodi:docname="upload_jr2aonihokavlq2om2cns7d7ap.pdf"
	xmlns:inkscape="http://www.inkscape.org/namespaces/inkscape"
	xmlns:sodipodi="http://sodipodi.sourceforge.net/DTD/sodipodi-0.dtd"
	xmlns="http://www.w3.org/2000/svg"
	xmlns:svg="http://www.w3.org/2000/svg">
  <defs
	  id="defs1">
	 <clipPath
		 clipPathUnits="userSpaceOnUse"
		 id="clipPath3">
		<path
			d="M 0,127.559 H 85.039 V 0 H 0 Z"
			transform="translate(-12.218601,-32.120301)"
			id="path3" />
	 </clipPath>
	 <clipPath
		 clipPathUnits="userSpaceOnUse"
		 id="clipPath5">
		<path
			d="M 0,127.559 H 85.039 V 0 H 0 Z"
			transform="translate(-32.225101,-47.337201)"
			id="path5" />
	 </clipPath>
	 <clipPath
		 clipPathUnits="userSpaceOnUse"
		 id="clipPath7">
		<path
			d="M 0,127.559 H 85.039 V 0 H 0 Z"
			transform="translate(-37.261901,-41.816804)"
			id="path7" />
	 </clipPath>
	 <clipPath
		 clipPathUnits="userSpaceOnUse"
		 id="clipPath9">
		<path
			d="M 0,127.559 H 85.039 V 0 H 0 Z"
			transform="translate(-73.036102,-47.664104)"
			id="path9" />
	 </clipPath>
	 <clipPath
		 clipPathUnits="userSpaceOnUse"
		 id="clipPath11">
		<path
			d="M 0,127.559 H 85.039 V 0 H 0 Z"
			transform="translate(-25.0072,-17.838598)"
			id="path11" />
	 </clipPath>
	 <clipPath
		 clipPathUnits="userSpaceOnUse"
		 id="clipPath13">
		<path
			d="M 0,127.559 H 85.039 V 0 H 0 Z"
			transform="translate(-40.207201,-16.374298)"
			id="path13" />
	 </clipPath>
	 <clipPath
		 clipPathUnits="userSpaceOnUse"
		 id="clipPath15">
		<path
			d="M 0,127.559 H 85.039 V 0 H 0 Z"
			transform="translate(-70.734502,-14.7866)"
			id="path15" />
	 </clipPath>
	 <clipPath
		 clipPathUnits="userSpaceOnUse"
		 id="clipPath17">
		<path
			d="M 0,127.559 H 85.039 V 0 H 0 Z"
			transform="translate(-52.628902,-41.816804)"
			id="path17" />
	 </clipPath>
	 <clipPath
		 clipPathUnits="userSpaceOnUse"
		 id="clipPath19">
		<path
			d="M 0,127.559 H 85.039 V 0 H 0 Z"
			transform="translate(-59.547001,-18.1622)"
			id="path19" />
	 </clipPath>
  </defs>
  <sodipodi:namedview
	  id="namedview1"
	  pagecolor="#ffffff"
	  bordercolor="#000000"
	  borderopacity="0.25"
	  inkscape:showpageshadow="2"
	  inkscape:pageopacity="0.0"
	  inkscape:pagecheckerboard="0"
	  inkscape:deskcolor="#d1d1d1">
	 <inkscape:page
		 x="0"
		 y="0"
		 inkscape:label="1"
		 id="page1"
		 width="113.38587"
		 height="170.07867"
		 margin="0"
		 bleed="0" />
  </sodipodi:namedview>
  <g
	  id="layer-MC0"
	  inkscape:groupmode="layer"
	  inkscape:label="Logo">
	 <path
		 id="path1"
		 d="M 0,0 H 85.039 V 127.559 H 0 Z"
		 style="fill:#80cc28;fill-opacity:1;fill-rule:nonzero;stroke:none"
		 transform="matrix(1.3333333,0,0,-1.3333333,0,170.07867)" />
	 <path
		 id="path2"
		 d="m 0,0 h -1.898 c 0.184,-0.987 0.654,-1.868 1.378,-2.562 0.647,0.3 1.331,0.531 2.048,0.687 C 0.747,-1.481 0.197,-0.851 0,0 m 3.723,3.519 c -2.759,0 -4.634,2.001 -4.634,5.09 0,2.986 1.875,5.114 4.584,5.114 2.608,0 4.633,-1.875 4.633,-5.114 0,-2.762 -1.722,-5.09 -4.583,-5.09 M 8.229,15.217 V 13.089 H 8.075 c -0.403,0.684 -1.871,2.455 -4.629,2.455 -3.723,0 -6.408,-2.885 -6.408,-6.935 0,-4.026 2.685,-6.888 6.558,-6.888 2.862,0 4.229,1.925 4.556,2.405 H 8.306 V 2.051 c 0,-1.801 -0.627,-3.168 -1.972,-3.869 0.751,-0.15 1.468,-0.377 2.142,-0.684 1.127,1.051 1.754,2.599 1.754,4.553 v 13.166 z"
		 style="fill:#ffffff;fill-opacity:1;fill-rule:nonzero;stroke:none"
		 transform="matrix(1.3333333,0,0,-1.3333333,16.291467,127.2516)"
		 clip-path="url(#clipPath3)" />
	 <path
		 id="path4"
		 d="m 0,0 c -1.925,0 -3.216,-1.344 -3.596,-2.458 h -0.15 V 0 h -1.975 v -13.166 h 1.998 v 6.785 c 0,2.505 1.345,4.38 3.75,4.38 H 1.114 V 0 Z"
		 style="fill:#ffffff;fill-opacity:1;fill-rule:nonzero;stroke:none"
		 transform="matrix(1.3333333,0,0,-1.3333333,42.9668,106.9624)"
		 clip-path="url(#clipPath5)" />
	 <path
		 id="path6"
		 d="M 0,0 C 0.203,2.432 2.101,4.026 4.306,4.026 6.534,4.026 8.382,2.632 8.559,0 Z m 10.684,-0.887 c 0,3.799 -2.378,6.734 -6.378,6.734 -3.596,0 -6.457,-2.708 -6.457,-6.911 0,-3.949 2.558,-6.911 6.584,-6.911 3.089,0 5.39,1.747 6.124,4.202 H 8.482 C 7.875,-5.317 6.204,-6.151 4.456,-6.151 c -2.708,0 -4.403,1.745 -4.506,4.38 h 10.734 z"
		 style="fill:#ffffff;fill-opacity:1;fill-rule:nonzero;stroke:none"
		 transform="matrix(1.3333333,0,0,-1.3333333,49.682533,114.32293)"
		 clip-path="url(#clipPath7)" />
	 <path
		 id="path8"
		 d="M 0,0 C -2.051,0 -3.469,-1.061 -4.026,-2.252 H -4.18 v 1.925 h -1.998 v -13.165 h 1.998 v 7.848 c 0,2.178 1.622,3.773 3.696,3.773 1.852,0 3.396,-1.368 3.396,-3.469 v -8.152 H 4.91 v 8.278 C 4.91,-2.302 3.062,0 0,0"
		 style="fill:#ffffff;fill-opacity:1;fill-rule:nonzero;stroke:none"
		 transform="matrix(1.3333333,0,0,-1.3333333,97.381467,106.52653)"
		 clip-path="url(#clipPath9)" />
	 <path
		 id="path10"
		 d="m 0,0 c -0.387,-1.985 -1.401,-3.619 -3.035,-4.907 -1.635,-1.284 -3.619,-1.928 -5.951,-1.928 -1.815,0 -3.432,0.401 -4.86,1.205 -1.424,0.803 -2.525,1.901 -3.299,3.295 -0.777,1.391 -1.164,2.959 -1.164,4.697 0,1.724 0.39,3.282 1.171,4.679 0.777,1.398 1.881,2.495 3.305,3.299 0.377,0.214 0.771,0.397 1.178,0.554 1.121,0.437 2.345,0.654 3.669,0.654 1.251,0 2.405,-0.197 3.466,-0.594 0.26,-0.097 0.513,-0.207 0.76,-0.327 1.261,-0.614 2.275,-1.437 3.042,-2.475 0.764,-1.034 1.278,-2.205 1.531,-3.516 h -4.349 c -0.247,0.898 -0.774,1.635 -1.578,2.209 -0.804,0.57 -1.761,0.857 -2.872,0.857 -1.518,0 -2.759,-0.507 -3.723,-1.521 -0.964,-1.014 -1.444,-2.285 -1.444,-3.819 0,-1.558 0.48,-2.836 1.438,-3.836 0.96,-1.004 2.205,-1.505 3.729,-1.505 1.104,0 2.061,0.277 2.872,0.831 0.814,0.55 1.387,1.267 1.724,2.148 z"
		 style="fill:#ffffff;fill-opacity:1;fill-rule:nonzero;stroke:none"
		 transform="matrix(1.3333333,0,0,-1.3333333,33.342933,146.29387)"
		 clip-path="url(#clipPath11)" />
	 <path
		 id="path12"
		 d="m 0,0 c -0.984,-1.007 -2.242,-1.514 -3.766,-1.514 -1.541,0 -2.802,0.507 -3.786,1.514 -0.987,1.011 -1.477,2.285 -1.477,3.826 0,1.524 0.493,2.795 1.481,3.813 0.99,1.02 2.251,1.527 3.782,1.527 C -2.242,9.166 -0.984,8.659 0,7.639 0.984,6.621 1.478,5.35 1.478,3.826 1.478,2.285 0.984,1.011 0,0 M 4.937,7.442 C 4.46,8.576 3.806,9.55 2.979,10.367 c -0.828,0.814 -1.828,1.461 -2.999,1.935 -1.167,0.473 -2.418,0.71 -3.746,0.71 -1.334,0 -2.585,-0.237 -3.749,-0.704 -1.168,-0.47 -2.165,-1.114 -2.992,-1.931 -0.827,-0.814 -1.481,-1.788 -1.961,-2.922 -0.477,-1.134 -0.714,-2.342 -0.714,-3.629 0,-1.294 0.233,-2.508 0.71,-3.646 0.474,-1.137 1.124,-2.111 1.952,-2.922 0.827,-0.814 1.827,-1.454 2.998,-1.925 1.171,-0.47 2.422,-0.703 3.756,-0.703 1.775,0 3.379,0.403 4.817,1.211 1.437,0.807 2.565,1.914 3.379,3.318 0.817,1.405 1.224,2.962 1.224,4.667 0,1.277 -0.237,2.482 -0.717,3.616"
		 style="fill:#ffffff;fill-opacity:1;fill-rule:nonzero;stroke:none"
		 transform="matrix(1.3333333,0,0,-1.3333333,53.6096,148.24627)"
		 clip-path="url(#clipPath13)" />
	 <path
		 id="path14"
		 d="M 0,0 V 3.769 H 6.154 V 7.182 H 0 v 3.672 h 7.218 v 3.422 H -4.006 V -3.449 H 7.219 l 0,3.449 z"
		 style="fill:#ffffff;fill-opacity:1;fill-rule:nonzero;stroke:none"
		 transform="matrix(1.3333333,0,0,-1.3333333,94.312667,150.3632)"
		 clip-path="url(#clipPath15)" />
	 <path
		 id="path16"
		 d="M 0,0 C 0.203,2.432 2.101,4.026 4.306,4.026 6.531,4.026 8.382,2.632 8.559,0 Z m 10.684,-0.887 c 0,3.799 -2.378,6.734 -6.378,6.734 -3.596,0 -6.457,-2.708 -6.457,-6.911 0,-3.949 2.558,-6.911 6.584,-6.911 3.085,0 5.39,1.747 6.124,4.202 H 8.482 C 7.875,-5.317 6.204,-6.151 4.456,-6.151 c -2.708,0 -4.403,1.745 -4.506,4.38 h 10.734 z"
		 style="fill:#ffffff;fill-opacity:1;fill-rule:nonzero;stroke:none"
		 transform="matrix(1.3333333,0,0,-1.3333333,70.171867,114.32293)"
		 clip-path="url(#clipPath17)" />
	 <path
		 id="path18"
		 d="m 0,0 c -0.19,-0.627 -0.447,-1.147 -0.767,-1.558 -0.32,-0.413 -0.704,-0.754 -1.148,-1.027 -0.447,-0.27 -0.91,-0.467 -1.391,-0.587 -0.483,-0.12 -0.994,-0.18 -1.527,-0.18 h -2.128 v 10.78 h 2.128 c 0.673,0 1.311,-0.1 1.904,-0.303 0.591,-0.2 1.134,-0.507 1.625,-0.914 C -0.814,5.804 -0.427,5.25 -0.143,4.55 0.14,3.849 0.284,3.035 0.284,2.111 0.284,1.331 0.19,0.627 0,0 M 3.833,5.667 C 3.412,6.751 2.815,7.679 2.038,8.449 1.264,9.22 0.304,9.82 -0.847,10.254 c -1.151,0.433 -2.422,0.647 -3.813,0.647 h -6.304 V -6.825 h 6.304 c 2.825,0 5.054,0.801 6.681,2.405 1.628,1.601 2.442,3.78 2.442,6.531 0,1.288 -0.21,2.472 -0.63,3.556"
		 style="fill:#ffffff;fill-opacity:1;fill-rule:nonzero;stroke:none"
		 transform="matrix(1.3333333,0,0,-1.3333333,79.396,145.8624)"
		 clip-path="url(#clipPath19)" />
  </g>
  <g
	  id="layer-MC1"
	  inkscape:groupmode="layer"
	  inkscape:label="Hilflinien"
	  style="display:none">
	 <path
		 id="path20"
		 d="m 77.953,11.338 h 7.087 v 7.087 h -7.087 z"
		 style="fill:#fddd04;fill-opacity:1;fill-rule:nonzero;stroke:none"
		 transform="matrix(1.3333333,0,0,-1.3333333,0,170.07867)" />
	 <path
		 id="path21"
		 d="M 66.614,0 H 77.952 V 11.338 H 66.614 Z"
		 style="fill:#fddd04;fill-opacity:1;fill-rule:nonzero;stroke:none"
		 transform="matrix(1.3333333,0,0,-1.3333333,0,170.07867)" />
	 <path
		 id="path22"
		 d="m 0,11.317 h 7.087 v 7.087 H 0 Z"
		 style="fill:#fddd04;fill-opacity:1;fill-rule:nonzero;stroke:none"
		 transform="matrix(1.3333333,0,0,-1.3333333,0,170.07867)" />
  </g>
</svg>
